<svg width="340" height="44" viewBox="0 0 340 44" fill="none" xmlns="http://www.w3.org/2000/svg">
<path d="M339 38.7899C339 41.1159 336.713 43 333.885 43H6.12141C3.29456 43 1 41.1159 1 38.7899V5.21561C1 2.8907 3.29456 1 6.12141 1H333.884C336.713 1 338.999 2.8907 338.999 5.21561L339 38.7899Z" fill="black"/>
<path d="M334.359 0.881376C336.971 0.881376 339.096 2.9535 339.096 5.5V38.5C339.096 41.0465 336.971 43.1186 334.359 43.1186H5.64103C3.02923 43.1186 0.903974 41.0465 0.903974 38.5V5.5C0.903974 2.9535 3.02923 0.881376 5.64103 0.881376H334.359ZM334.359 2.32537e-06H5.64103C2.53987 2.32537e-06 0 2.47638 0 5.5V38.5C0 41.5236 2.53987 44 5.64103 44H334.359C337.46 44 340 41.5236 340 38.5V5.5C340 2.47638 337.46 2.32537e-06 334.359 2.32537e-06Z" fill="#A6A6A6"/>
<path d="M133.662 21.9151C133.633 18.847 136.238 17.3543 136.357 17.2848C134.882 15.1877 132.595 14.9012 131.792 14.8783C129.871 14.6813 128.009 15.9988 127.03 15.9988C126.032 15.9988 124.526 14.8974 122.902 14.9297C120.813 14.9611 118.858 16.1406 117.786 17.9722C115.574 21.7067 117.224 27.1947 119.343 30.2133C120.404 31.6917 121.643 33.3424 123.264 33.2843C124.851 33.2205 125.444 32.2981 127.358 32.2981C129.255 32.2981 129.812 33.2843 131.466 33.2472C133.169 33.2205 134.241 31.7622 135.264 30.2704C136.489 28.576 136.981 26.9072 137.001 26.8215C136.961 26.8082 133.694 25.5925 133.662 21.9151Z" fill="white"/>
<path d="M130.537 12.8925C131.391 11.8521 131.975 10.4365 131.812 9C130.577 9.05331 129.033 9.83296 128.143 10.8506C127.356 11.7473 126.653 13.2172 126.835 14.5994C128.222 14.7003 129.647 13.9168 130.537 12.8925Z" fill="white"/>
<path d="M156.623 33.0729H154.405L153.191 29.3517H148.969L147.812 33.0729H145.653L149.836 20.4043H152.42L156.623 33.0729ZM152.825 27.7905L151.726 24.4825C151.61 24.1445 151.392 23.3487 151.071 22.0959H151.032C150.904 22.6347 150.698 23.4306 150.415 24.4825L149.336 27.7905H152.825Z" fill="white"/>
<path d="M167.379 28.3927C167.379 29.9463 166.948 31.1743 166.087 32.0758C165.316 32.8783 164.358 33.2791 163.215 33.2791C161.981 33.2791 161.094 32.8469 160.554 31.9825H160.515V36.7946H158.434V26.9448C158.434 25.9681 158.407 24.9656 158.356 23.9375H160.187L160.303 25.3855H160.342C161.037 24.2945 162.09 23.75 163.504 23.75C164.609 23.75 165.532 24.1755 166.27 25.0275C167.01 25.8805 167.379 27.0019 167.379 28.3927ZM165.258 28.4669C165.258 27.5778 165.053 26.8448 164.641 26.2679C164.191 25.6663 163.587 25.3655 162.829 25.3655C162.316 25.3655 161.849 25.533 161.432 25.8633C161.014 26.1965 160.741 26.6316 160.613 27.1704C160.548 27.4217 160.516 27.6273 160.516 27.7891V29.3123C160.516 29.9767 160.725 30.5374 161.143 30.9953C161.561 31.4532 162.104 31.6817 162.772 31.6817C163.556 31.6817 164.166 31.3866 164.602 30.7983C165.04 30.209 165.258 29.4322 165.258 28.4669Z" fill="white"/>
<path d="M178.155 28.3927C178.155 29.9463 177.725 31.1743 176.863 32.0758C176.092 32.8783 175.135 33.2791 173.991 33.2791C172.757 33.2791 171.871 32.8469 171.332 31.9825H171.293V36.7946H169.211V26.9448C169.211 25.9681 169.185 24.9656 169.134 23.9375H170.964L171.081 25.3855H171.12C171.813 24.2945 172.866 23.75 174.281 23.75C175.385 23.75 176.308 24.1755 177.048 25.0275C177.785 25.8805 178.155 27.0019 178.155 28.3927ZM176.035 28.4669C176.035 27.5778 175.829 26.8448 175.417 26.2679C174.967 25.6663 174.364 25.3655 173.606 25.3655C173.091 25.3655 172.625 25.533 172.207 25.8633C171.789 26.1965 171.517 26.6316 171.389 27.1704C171.326 27.4217 171.293 27.6273 171.293 27.7891V29.3123C171.293 29.9767 171.501 30.5374 171.917 30.9953C172.335 31.4523 172.878 31.6817 173.548 31.6817C174.332 31.6817 174.942 31.3866 175.379 30.7983C175.816 30.209 176.035 29.4322 176.035 28.4669Z" fill="white"/>
<path d="M190.203 29.5203C190.203 30.5979 189.82 31.4746 189.049 32.1515C188.203 32.8912 187.024 33.2605 185.51 33.2605C184.112 33.2605 182.991 32.9978 182.143 32.4713L182.625 30.7797C183.539 31.3185 184.542 31.5889 185.634 31.5889C186.418 31.5889 187.028 31.4156 187.467 31.071C187.903 30.7264 188.121 30.2638 188.121 29.6869C188.121 29.1728 187.941 28.7397 187.581 28.3884C187.223 28.0371 186.624 27.7106 185.788 27.4089C183.513 26.5816 182.377 25.3698 182.377 23.7762C182.377 22.7348 182.775 21.8809 183.573 21.2164C184.368 20.551 185.428 20.2188 186.754 20.2188C187.936 20.2188 188.919 20.4196 189.703 20.8204L189.182 22.4749C188.45 22.0865 187.622 21.8923 186.695 21.8923C185.963 21.8923 185.391 22.0684 184.981 22.4187C184.634 22.7319 184.46 23.1136 184.46 23.5658C184.46 24.0665 184.659 24.4806 185.057 24.8062C185.404 25.107 186.033 25.4326 186.947 25.7839C188.065 26.2227 188.886 26.7358 189.415 27.3241C189.941 27.9105 190.203 28.6445 190.203 29.5203Z" fill="white"/>
<path d="M197.086 25.4614H194.791V29.8965C194.791 31.0246 195.196 31.5881 196.006 31.5881C196.378 31.5881 196.686 31.5567 196.931 31.4939L196.988 33.0351C196.578 33.1846 196.038 33.2598 195.369 33.2598C194.547 33.2598 193.905 33.0151 193.441 32.5268C192.979 32.0375 192.747 31.2169 192.747 30.0641V25.4595H191.38V23.9363H192.747V22.2637L194.791 21.6621V23.9363H197.086V25.4614Z" fill="white"/>
<path d="M207.439 28.4308C207.439 29.8349 207.027 30.9878 206.204 31.8892C205.342 32.8174 204.198 33.2801 202.772 33.2801C201.397 33.2801 200.302 32.8355 199.486 31.9464C198.67 31.0572 198.262 29.9349 198.262 28.5822C198.262 27.1666 198.682 26.0071 199.524 25.1056C200.365 24.2032 201.499 23.752 202.926 23.752C204.301 23.752 205.407 24.1965 206.242 25.0866C207.04 25.95 207.439 27.0648 207.439 28.4308ZM205.279 28.4965C205.279 27.654 205.094 26.9315 204.72 26.3289C204.284 25.5997 203.66 25.236 202.852 25.236C202.015 25.236 201.379 25.6006 200.943 26.3289C200.569 26.9324 200.384 27.6664 200.384 28.5346C200.384 29.377 200.569 30.0996 200.943 30.7012C201.393 31.4304 202.022 31.7941 202.833 31.7941C203.628 31.7941 204.252 31.4228 204.702 30.6822C205.086 30.0682 205.279 29.338 205.279 28.4965Z" fill="white"/>
<path d="M214.205 25.7224C213.999 25.6853 213.779 25.6663 213.549 25.6663C212.817 25.6663 212.25 25.9357 211.852 26.4754C211.505 26.9514 211.332 27.5531 211.332 28.2794V33.0725H209.251L209.27 26.8143C209.27 25.7615 209.244 24.8029 209.192 23.9385H211.005L211.082 25.6863H211.139C211.359 25.0856 211.706 24.602 212.18 24.2393C212.644 23.9128 213.145 23.75 213.685 23.75C213.877 23.75 214.051 23.7633 214.205 23.7871V25.7224Z" fill="white"/>
<path d="M223.514 28.0724C223.514 28.436 223.49 28.7426 223.438 28.9929H217.193C217.217 29.8954 217.519 30.5855 218.099 31.0615C218.625 31.487 219.306 31.7003 220.142 31.7003C221.066 31.7003 221.91 31.5565 222.668 31.2681L222.994 32.677C222.108 33.0539 221.061 33.2415 219.854 33.2415C218.401 33.2415 217.26 32.8245 216.43 31.9916C215.602 31.1586 215.188 30.0401 215.188 28.6369C215.188 27.2594 215.573 26.1123 216.345 25.1975C217.154 24.2208 218.246 23.7324 219.621 23.7324C220.971 23.7324 221.994 24.2208 222.688 25.1975C223.238 25.9733 223.514 26.9329 223.514 28.0724ZM221.529 27.5459C221.543 26.9443 221.407 26.4245 221.125 25.9857C220.764 25.4212 220.211 25.1394 219.466 25.1394C218.785 25.1394 218.232 25.4145 217.809 25.9667C217.462 26.4055 217.256 26.9319 217.193 27.545H221.529V27.5459Z" fill="white"/>
<path d="M152.136 12.6087C152.136 13.7291 151.791 14.5726 151.103 15.139C150.465 15.6616 149.559 15.9234 148.385 15.9234C147.804 15.9234 147.306 15.8986 146.889 15.8491V9.72712C147.433 9.64145 148.018 9.59766 148.651 9.59766C149.769 9.59766 150.612 9.83469 151.18 10.3088C151.816 10.8447 152.136 11.611 152.136 12.6087ZM151.057 12.6363C151.057 11.91 150.86 11.3531 150.465 10.9647C150.071 10.5772 149.495 10.383 148.736 10.383C148.414 10.383 148.139 10.404 147.912 10.4478V15.1019C148.038 15.1209 148.268 15.1295 148.603 15.1295C149.386 15.1295 149.991 14.9172 150.416 14.4926C150.842 14.068 151.057 13.4493 151.057 12.6363Z" fill="white"/>
<path d="M157.857 13.5871C157.857 14.2772 157.654 14.8427 157.25 15.2863C156.826 15.7423 156.265 15.9698 155.564 15.9698C154.888 15.9698 154.35 15.7518 153.949 15.3139C153.549 14.877 153.349 14.3258 153.349 13.6613C153.349 12.9664 153.555 12.3962 153.969 11.9535C154.383 11.5109 154.939 11.2891 155.64 11.2891C156.316 11.2891 156.859 11.5071 157.27 11.944C157.66 12.3686 157.857 12.9169 157.857 13.5871ZM156.795 13.6194C156.795 13.2053 156.703 12.8503 156.521 12.5542C156.306 12.1963 156 12.0173 155.603 12.0173C155.192 12.0173 154.88 12.1963 154.665 12.5542C154.481 12.8503 154.39 13.2111 154.39 13.6375C154.39 14.0516 154.482 14.4067 154.665 14.7028C154.886 15.0607 155.195 15.2397 155.593 15.2397C155.984 15.2397 156.29 15.0578 156.511 14.6932C156.7 14.3915 156.795 14.0335 156.795 13.6194Z" fill="white"/>
<path d="M165.526 11.3809L164.086 15.8684H163.149L162.552 13.9197C162.401 13.4333 162.278 12.9497 162.182 12.4699H162.163C162.075 12.963 161.952 13.4456 161.793 13.9197L161.16 15.8684H160.212L158.857 11.3809H159.909L160.429 13.5142C160.555 14.0187 160.659 14.4995 160.742 14.9545H160.76C160.837 14.5794 160.962 14.1015 161.14 13.5237L161.793 11.3818H162.627L163.253 13.478C163.404 13.9892 163.527 14.4814 163.622 14.9554H163.65C163.72 14.4937 163.824 14.0016 163.963 13.478L164.521 11.3818H165.526V11.3809Z" fill="white"/>
<path d="M170.831 15.8689H169.808V13.2986C169.808 12.5066 169.499 12.1105 168.88 12.1105C168.577 12.1105 168.332 12.2191 168.141 12.4371C167.953 12.6551 167.857 12.9121 167.857 13.2062V15.8679H166.834V12.6636C166.834 12.2695 166.821 11.8421 166.797 11.3794H167.696L167.744 12.081H167.772C167.891 11.863 168.069 11.6831 168.302 11.5394C168.58 11.3718 168.89 11.2871 169.23 11.2871C169.66 11.2871 170.017 11.4223 170.301 11.6936C170.654 12.0258 170.831 12.5218 170.831 13.1805V15.8689Z" fill="white"/>
<path d="M173.653 15.8689H172.631V9.32227H173.653V15.8689Z" fill="white"/>
<path d="M179.677 13.5871C179.677 14.2772 179.475 14.8427 179.07 15.2863C178.647 15.7423 178.084 15.9698 177.384 15.9698C176.708 15.9698 176.17 15.7518 175.769 15.3139C175.369 14.877 175.169 14.3258 175.169 13.6613C175.169 12.9664 175.375 12.3962 175.789 11.9535C176.203 11.5109 176.759 11.2891 177.459 11.2891C178.136 11.2891 178.678 11.5071 179.09 11.944C179.481 12.3686 179.677 12.9169 179.677 13.5871ZM178.615 13.6194C178.615 13.2053 178.523 12.8503 178.34 12.5542C178.126 12.1963 177.82 12.0173 177.423 12.0173C177.011 12.0173 176.699 12.1963 176.485 12.5542C176.302 12.8503 176.211 13.2111 176.211 13.6375C176.211 14.0516 176.303 14.4067 176.485 14.7028C176.707 15.0607 177.015 15.2397 177.414 15.2397C177.804 15.2397 178.11 15.0578 178.33 14.6932C178.521 14.3915 178.615 14.0335 178.615 13.6194Z" fill="white"/>
<path d="M184.629 15.868H183.71L183.634 15.351H183.606C183.291 15.7632 182.843 15.9698 182.261 15.9698C181.827 15.9698 181.475 15.8337 181.211 15.5633C180.971 15.3177 180.851 15.0122 180.851 14.6495C180.851 14.1011 181.085 13.6832 181.556 13.3938C182.027 13.1044 182.689 12.9626 183.541 12.9693V12.8855C183.541 12.2943 183.223 11.9992 182.586 11.9992C182.132 11.9992 181.731 12.1106 181.386 12.3315L181.178 11.6765C181.605 11.4185 182.134 11.2891 182.756 11.2891C183.959 11.2891 184.563 11.9078 184.563 13.1454V14.798C184.563 15.2463 184.585 15.6033 184.629 15.868ZM183.567 14.3258V13.6337C182.438 13.6147 181.874 13.9165 181.874 14.5381C181.874 14.7723 181.938 14.9474 182.07 15.0645C182.202 15.1816 182.37 15.2397 182.57 15.2397C182.795 15.2397 183.004 15.1702 183.196 15.0321C183.388 14.8932 183.506 14.717 183.55 14.501C183.561 14.4524 183.567 14.3934 183.567 14.3258Z" fill="white"/>
<path d="M190.443 15.8689H189.535L189.488 15.1482H189.459C189.169 15.6965 188.675 15.9707 187.981 15.9707C187.426 15.9707 186.965 15.7584 186.599 15.3339C186.232 14.9093 186.05 14.3581 186.05 13.6813C186.05 12.9549 186.248 12.3666 186.646 11.9173C187.032 11.4984 187.505 11.289 188.067 11.289C188.685 11.289 189.118 11.4918 189.364 11.8983H189.383V9.32227H190.407V14.6599C190.407 15.0968 190.419 15.4995 190.443 15.8689ZM189.383 13.9764V13.2281C189.383 13.0987 189.373 12.994 189.355 12.914C189.297 12.6741 189.173 12.4723 188.985 12.3095C188.794 12.1467 188.565 12.0648 188.3 12.0648C187.919 12.0648 187.62 12.2124 187.4 12.5085C187.182 12.8045 187.072 13.1824 187.072 13.6441C187.072 14.0877 187.177 14.4476 187.386 14.7246C187.608 15.0197 187.907 15.1673 188.281 15.1673C188.617 15.1673 188.885 15.0445 189.089 14.7979C189.286 14.5704 189.383 14.2962 189.383 13.9764Z" fill="white"/>
<path d="M199.194 13.5871C199.194 14.2772 198.992 14.8427 198.588 15.2863C198.164 15.7423 197.604 15.9698 196.902 15.9698C196.227 15.9698 195.689 15.7518 195.287 15.3139C194.887 14.877 194.687 14.3258 194.687 13.6613C194.687 12.9664 194.893 12.3962 195.307 11.9535C195.72 11.5109 196.277 11.2891 196.979 11.2891C197.654 11.2891 198.198 11.5071 198.608 11.944C198.998 12.3686 199.194 12.9169 199.194 13.5871ZM198.134 13.6194C198.134 13.2053 198.042 12.8503 197.86 12.5542C197.644 12.1963 197.339 12.0173 196.941 12.0173C196.531 12.0173 196.218 12.1963 196.003 12.5542C195.819 12.8503 195.728 13.2111 195.728 13.6375C195.728 14.0516 195.82 14.4067 196.003 14.7028C196.224 15.0607 196.533 15.2397 196.931 15.2397C197.322 15.2397 197.629 15.0578 197.85 14.6932C198.038 14.3915 198.134 14.0335 198.134 13.6194Z" fill="white"/>
<path d="M204.696 15.8689H203.674V13.2986C203.674 12.5066 203.366 12.1105 202.746 12.1105C202.442 12.1105 202.197 12.2191 202.008 12.4371C201.818 12.6551 201.723 12.9121 201.723 13.2062V15.8679H200.699V12.6636C200.699 12.2695 200.687 11.8421 200.663 11.3794H201.561L201.609 12.081H201.637C201.758 11.863 201.935 11.6831 202.168 11.5394C202.446 11.3718 202.755 11.2871 203.096 11.2871C203.525 11.2871 203.882 11.4223 204.166 11.6936C204.521 12.0258 204.696 12.5218 204.696 13.1805V15.8689Z" fill="white"/>
<path d="M211.582 12.1285H210.456V14.3085C210.456 14.8626 210.656 15.1396 211.052 15.1396C211.236 15.1396 211.388 15.1243 211.508 15.0929L211.535 15.8497C211.332 15.924 211.067 15.9611 210.74 15.9611C210.336 15.9611 210.021 15.8412 209.794 15.6013C209.565 15.3614 209.452 14.9578 209.452 14.3913V12.1285H208.779V11.3813H209.452V10.5588L210.455 10.2637V11.3803H211.581V12.1285H211.582Z" fill="white"/>
<path d="M216.999 15.8689H215.975V13.3176C215.975 12.5132 215.666 12.1105 215.048 12.1105C214.574 12.1105 214.25 12.3438 214.072 12.8102C214.042 12.9083 214.024 13.0282 214.024 13.1691V15.8679H213.002V9.32227H214.024V12.0268H214.044C214.366 11.5346 214.828 11.289 215.426 11.289C215.85 11.289 216.201 11.4242 216.479 11.6955C216.825 12.0334 216.999 12.5361 216.999 13.2005V15.8689Z" fill="white"/>
<path d="M222.587 13.4127C222.587 13.5916 222.573 13.742 222.549 13.8649H219.48C219.494 14.3085 219.64 14.6464 219.925 14.8806C220.184 15.09 220.519 15.1947 220.929 15.1947C221.383 15.1947 221.797 15.1243 222.17 14.9824L222.33 15.6755C221.894 15.8601 221.38 15.9525 220.786 15.9525C220.073 15.9525 219.512 15.7478 219.105 15.3385C218.697 14.9291 218.495 14.3799 218.495 13.6906C218.495 13.0138 218.684 12.4502 219.063 12.0009C219.46 11.5211 219.996 11.2812 220.672 11.2812C221.334 11.2812 221.837 11.5211 222.177 12.0009C222.451 12.3817 222.587 12.8529 222.587 13.4127ZM221.611 13.1547C221.618 12.8586 221.551 12.6035 221.412 12.3884C221.235 12.1114 220.964 11.9724 220.598 11.9724C220.264 11.9724 219.992 12.1075 219.784 12.3789C219.614 12.5949 219.513 12.8529 219.48 13.1547H221.611Z" fill="white"/>
</svg>
