<svg width="14" height="16" viewBox="0 0 14 16" fill="none" xmlns="http://www.w3.org/2000/svg">
<path d="M12.5 2H11V0.375C11 0.1875 10.8125 0 10.625 0H9.375C9.15625 0 9 0.1875 9 0.375V2H5V0.375C5 0.1875 4.8125 0 4.625 0H3.375C3.15625 0 3 0.1875 3 0.375V2H1.5C0.65625 2 0 2.6875 0 3.5V14.5C0 15.3438 0.65625 16 1.5 16H12.5C13.3125 16 14 15.3438 14 14.5V3.5C14 2.6875 13.3125 2 12.5 2ZM12.3125 14.5H1.6875C1.5625 14.5 1.5 14.4375 1.5 14.3125V5H12.5V14.3125C12.5 14.4375 12.4062 14.5 12.3125 14.5Z" fill="white"/>
</svg>
