<svg width="24" height="24" viewBox="0 0 24 24" fill="none" xmlns="http://www.w3.org/2000/svg">
<path d="M13.4912 12L16.8662 8.65625C17.0537 8.46875 17.0537 8.125 16.8662 7.9375L16.085 7.15625C15.8975 6.96875 15.5537 6.96875 15.3662 7.15625L12.0225 10.5312L8.64746 7.15625C8.45996 6.96875 8.11621 6.96875 7.92871 7.15625L7.14746 7.9375C6.95996 8.125 6.95996 8.46875 7.14746 8.65625L10.5225 12L7.14746 15.375C6.95996 15.5625 6.95996 15.9062 7.14746 16.0938L7.92871 16.875C8.11621 17.0625 8.45996 17.0625 8.64746 16.875L12.0225 13.5L15.3662 16.875C15.5537 17.0625 15.8975 17.0625 16.085 16.875L16.8662 16.0938C17.0537 15.9062 17.0537 15.5625 16.8662 15.375L13.4912 12Z" fill="#323232"/>
</svg>
