<svg width="24" height="24" viewBox="0 0 24 24" fill="none" xmlns="http://www.w3.org/2000/svg">
<path d="M12.7725 11.4062C12.7725 11.1875 12.585 11.0312 12.3975 11.0312H11.6475C11.4287 11.0312 11.2725 11.1875 11.2725 11.4062V14.0312H9.74121C9.39746 14.0312 9.24121 14.4375 9.45996 14.6562L11.71 16.9062C11.8662 17.0625 12.1475 17.0625 12.3037 16.9062L14.5537 14.6562C14.7725 14.4375 14.6162 14.0312 14.2725 14.0312H12.7725V11.4062ZM17.5537 7.0625L14.9287 4.46875C14.6475 4.1875 14.2725 4 13.8975 4H7.49121C6.67871 4.03125 6.02246 4.6875 6.02246 5.53125V18.5312C6.02246 19.3438 6.67871 20 7.49121 20H16.4912C17.335 20 18.0225 19.3438 18.0225 18.5312V8.125C18.0225 7.75 17.835 7.34375 17.5537 7.0625ZM13.9912 5.625L16.3975 8.03125H13.9912V5.625ZM16.5225 18.5312H7.49121V5.53125H12.4912V8.78125C12.4912 9.1875 12.835 9.53125 13.2412 9.53125H16.5225V18.5312Z" fill="#323232"/>
</svg>
