<svg width="14" height="14" viewBox="0 0 14 14" fill="none" xmlns="http://www.w3.org/2000/svg">
<path d="M7.01758 4.27843C6.75022 4.30273 6.48286 4.32704 6.2398 4.39996C6.36133 4.5944 6.40994 4.83746 6.43425 5.05621C6.43425 5.80968 5.8023 6.41732 5.07313 6.41732C4.83008 6.41732 4.58702 6.36871 4.41688 6.24718C4.34397 6.49023 4.29536 6.73329 4.29536 7.00065C4.29536 8.50759 5.51063 9.72287 7.01758 9.72287C8.52452 9.72287 9.7398 8.50759 9.7398 7.00065C9.7398 5.51801 8.52452 4.30273 7.01758 4.30273V4.27843ZM13.9204 6.66037C12.6079 4.08398 9.98286 2.33398 7.01758 2.33398C4.02799 2.33398 1.40299 4.08398 0.0904948 6.66037C0.0418837 6.7576 0.0175781 6.87912 0.0175781 7.00065C0.0175781 7.14648 0.0418837 7.26801 0.0904948 7.36523C1.40299 9.94162 4.02799 11.6673 7.01758 11.6673C9.98286 11.6673 12.6079 9.94162 13.9204 7.36523C13.969 7.26801 13.9933 7.14648 13.9933 7.02496C13.9933 6.87912 13.969 6.7576 13.9204 6.66037ZM7.01758 10.5007C4.61133 10.5007 2.39952 9.16384 1.23286 7.00065C2.39952 4.83746 4.61133 3.50065 7.01758 3.50065C9.39952 3.50065 11.6113 4.83746 12.778 7.00065C11.6113 9.16384 9.39952 10.5007 7.01758 10.5007Z" fill="#292929"/>
</svg>
