<svg width="340" height="44" viewBox="0 0 340 44" fill="none" xmlns="http://www.w3.org/2000/svg">
<path d="M339 38.7899C339 41.1159 336.713 43 333.885 43H6.12141C3.29456 43 1 41.1159 1 38.7899V5.21561C1 2.8907 3.29456 1 6.12141 1H333.884C336.713 1 338.999 2.8907 338.999 5.21561L339 38.7899Z" fill="black"/>
<path d="M150.747 13.0276C150.747 13.8101 150.507 14.4368 150.034 14.9042C149.491 15.4582 148.783 15.737 147.916 15.737C147.087 15.737 146.379 15.4535 145.798 14.8948C145.216 14.3278 144.926 13.632 144.926 12.7992C144.926 11.9663 145.216 11.2705 145.798 10.7082C146.379 10.1448 147.087 9.86133 147.916 9.86133C148.328 9.86133 148.722 9.9445 149.097 10.0991C149.472 10.2549 149.776 10.4658 149.997 10.7258L149.496 11.2201C149.111 10.7762 148.586 10.5571 147.916 10.5571C147.311 10.5571 146.787 10.7633 146.342 11.1791C145.901 11.5962 145.68 12.1362 145.68 12.7992C145.68 13.4622 145.901 14.0069 146.342 14.4239C146.787 14.8351 147.311 15.0459 147.916 15.0459C148.558 15.0459 149.097 14.8351 149.523 14.4192C149.804 14.1439 149.964 13.7644 150.006 13.2794H147.916V12.6024H150.704C150.737 12.7488 150.747 12.8905 150.747 13.0276Z" fill="white" stroke="white" stroke-width="0.16" stroke-miterlimit="10"/>
<path d="M155.171 10.6802H152.552V12.4607H154.913V13.1378H152.552V14.9183H155.171V15.6082H151.811V9.99023H155.171V10.6802Z" fill="white" stroke="white" stroke-width="0.16" stroke-miterlimit="10"/>
<path d="M158.292 15.6082H157.551V10.6802H155.944V9.99023H159.9V10.6802H158.292V15.6082Z" fill="white" stroke="white" stroke-width="0.16" stroke-miterlimit="10"/>
<path d="M162.763 15.6082V9.99023H163.503V15.6082H162.763Z" fill="white" stroke="white" stroke-width="0.16" stroke-miterlimit="10"/>
<path d="M166.784 15.6082H166.049V10.6802H164.437V9.99023H168.397V10.6802H166.784V15.6082Z" fill="white" stroke="white" stroke-width="0.16" stroke-miterlimit="10"/>
<path d="M175.886 14.8854C175.318 15.4535 174.615 15.737 173.777 15.737C172.933 15.737 172.23 15.4535 171.663 14.8854C171.096 14.3185 170.814 13.6227 170.814 12.7992C170.814 11.9757 171.096 11.2799 171.663 10.7129C172.23 10.1448 172.933 9.86133 173.777 9.86133C174.611 9.86133 175.314 10.1448 175.881 10.7176C176.452 11.2893 176.734 11.9804 176.734 12.7992C176.734 13.6227 176.452 14.3185 175.886 14.8854ZM172.211 14.4145C172.638 14.8351 173.158 15.0459 173.777 15.0459C174.391 15.0459 174.915 14.8351 175.338 14.4145C175.764 13.994 175.979 13.454 175.979 12.7992C175.979 12.1444 175.764 11.6044 175.338 11.1838C174.915 10.7633 174.391 10.5524 173.777 10.5524C173.158 10.5524 172.638 10.7633 172.211 11.1838C171.785 11.6044 171.569 12.1444 171.569 12.7992C171.569 13.454 171.785 13.994 172.211 14.4145Z" fill="white" stroke="white" stroke-width="0.16" stroke-miterlimit="10"/>
<path d="M177.774 15.6082V9.99023H178.674L181.472 14.3595H181.505L181.472 13.2795V9.99023H182.212V15.6082H181.44L178.51 11.0234H178.477L178.51 12.1081V15.6082H177.774Z" fill="white" stroke="white" stroke-width="0.16" stroke-miterlimit="10"/>
<path d="M170.632 23.8134C168.378 23.8134 166.536 25.4885 166.536 27.7996C166.536 30.092 168.378 31.7847 170.632 31.7847C172.891 31.7847 174.733 30.092 174.733 27.7996C174.733 25.4885 172.891 23.8134 170.632 23.8134ZM170.632 30.215C169.395 30.215 168.331 29.2182 168.331 27.7996C168.331 26.3623 169.395 25.383 170.632 25.383C171.869 25.383 172.938 26.3623 172.938 27.7996C172.938 29.2182 171.869 30.215 170.632 30.215ZM161.695 23.8134C159.436 23.8134 157.599 25.4885 157.599 27.7996C157.599 30.092 159.436 31.7847 161.695 31.7847C163.953 31.7847 165.791 30.092 165.791 27.7996C165.791 25.4885 163.953 23.8134 161.695 23.8134ZM161.695 30.215C160.457 30.215 159.389 29.2182 159.389 27.7996C159.389 26.3623 160.457 25.383 161.695 25.383C162.932 25.383 163.996 26.3623 163.996 27.7996C163.996 29.2182 162.932 30.215 161.695 30.215ZM151.06 25.0351V26.729H155.203C155.082 27.6754 154.758 28.3713 154.261 28.8562C153.657 29.4419 152.715 30.092 151.06 30.092C148.511 30.092 146.514 28.0831 146.514 25.5939C146.514 23.1047 148.511 21.0957 151.06 21.0957C152.439 21.0957 153.442 21.6217 154.182 22.3034L155.405 21.1098C154.369 20.1446 152.992 19.4031 151.06 19.4031C147.564 19.4031 144.626 22.1805 144.626 25.5939C144.626 29.0073 147.564 31.7847 151.06 31.7847C152.95 31.7847 154.369 31.1802 155.485 30.0463C156.629 28.93 156.985 27.3603 156.985 26.0929C156.985 25.6993 156.951 25.3373 156.891 25.0351H151.06ZM194.547 26.3483C194.21 25.4568 193.17 23.8134 191.051 23.8134C188.952 23.8134 187.204 25.4287 187.204 27.7996C187.204 30.0323 188.934 31.7847 191.253 31.7847C193.128 31.7847 194.21 30.6683 194.655 30.0182L193.264 29.1127C192.799 29.7757 192.167 30.215 191.253 30.215C190.345 30.215 189.693 29.8085 189.276 29.0073L194.736 26.8016L194.547 26.3483ZM188.98 27.6754C188.934 26.1386 190.203 25.3514 191.112 25.3514C191.825 25.3514 192.43 25.6993 192.631 26.1971L188.98 27.6754ZM184.542 31.5422H186.337V19.8283H184.542V31.5422ZM181.603 24.7013H181.543C181.14 24.2351 180.371 23.8134 179.397 23.8134C177.352 23.8134 175.483 25.5658 175.483 27.8125C175.483 30.0463 177.352 31.7847 179.397 31.7847C180.371 31.7847 181.14 31.3595 181.543 30.8792H181.603V31.4508C181.603 32.9748 180.769 33.7936 179.424 33.7936C178.328 33.7936 177.647 33.0205 177.367 32.3704L175.806 33.0064C176.256 34.063 177.447 35.3633 179.424 35.3633C181.529 35.3633 183.304 34.1544 183.304 31.213V24.0558H181.603V24.7013ZM179.55 30.215C178.313 30.215 177.278 29.2041 177.278 27.8125C177.278 26.408 178.313 25.383 179.55 25.383C180.769 25.383 181.73 26.408 181.73 27.8125C181.73 29.2041 180.769 30.215 179.55 30.215ZM202.951 19.8283H198.658V31.5422H200.448V27.1038H202.951C204.939 27.1038 206.888 25.6993 206.888 23.4655C206.888 21.2328 204.934 19.8283 202.951 19.8283ZM202.997 25.4744H200.448V21.4577H202.997C204.334 21.4577 205.097 22.5412 205.097 23.4655C205.097 24.3721 204.334 25.4744 202.997 25.4744ZM214.063 23.7911C212.77 23.7911 211.425 24.3487 210.872 25.5845L212.46 26.2346C212.802 25.5845 213.431 25.3737 214.095 25.3737C215.024 25.3737 215.966 25.9184 215.98 26.8801V27.0031C215.656 26.8203 214.963 26.5497 214.11 26.5497C212.399 26.5497 210.656 27.4693 210.656 29.1854C210.656 30.755 212.057 31.7659 213.632 31.7659C214.837 31.7659 215.501 31.2353 215.919 30.618H215.98V31.5235H217.709V27.03C217.709 24.9531 216.121 23.7911 214.063 23.7911ZM213.847 30.2103C213.261 30.2103 212.446 29.9269 212.446 29.2182C212.446 28.3115 213.463 27.9636 214.344 27.9636C215.132 27.9636 215.501 28.1335 215.98 28.3572C215.84 29.4419 214.884 30.2103 213.847 30.2103ZM224.008 24.0476L221.95 29.1256H221.889L219.762 24.0476H217.831L221.028 31.1439L219.204 35.0927H221.074L226 24.0476H224.008ZM207.872 31.5422H209.667V19.8283H207.872V31.5422Z" fill="white"/>
<path d="M115.251 10.4929C114.969 10.781 114.806 11.2297 114.806 11.8107V32.5349C114.806 33.116 114.969 33.5646 115.251 33.8528L115.32 33.916L127.215 22.3075V22.0334L115.32 10.4249L115.251 10.4929Z" fill="url(#paint0_linear)"/>
<path d="M131.175 26.1797L127.215 22.3082V22.0341L131.18 18.1627L131.269 18.2131L135.965 20.8217C137.305 21.5621 137.305 22.7803 135.965 23.5253L131.269 26.1293L131.175 26.1797Z" fill="url(#paint1_linear)"/>
<path d="M131.269 26.1291L127.215 22.1709L115.251 33.8532C115.696 34.3101 116.422 34.3651 117.247 33.9083L131.269 26.1291Z" fill="url(#paint2_linear)"/>
<path d="M131.269 18.2118L117.247 10.4326C116.422 9.98043 115.696 10.0355 115.251 10.4923L127.215 22.1699L131.269 18.2118Z" fill="url(#paint3_linear)"/>
<path d="M334.359 0.881376C336.971 0.881376 339.096 2.9535 339.096 5.5V38.5C339.096 41.0465 336.971 43.1186 334.359 43.1186H5.64103C3.02923 43.1186 0.903974 41.0465 0.903974 38.5V5.5C0.903974 2.9535 3.02923 0.881376 5.64103 0.881376H334.359ZM334.359 2.32537e-06H5.64103C2.53987 2.32537e-06 0 2.47638 0 5.5V38.5C0 41.5236 2.53987 44 5.64103 44H334.359C337.46 44 340 41.5236 340 38.5V5.5C340 2.47638 337.46 2.32537e-06 334.359 2.32537e-06Z" fill="#A6A6A6"/>
<defs>
<linearGradient id="paint0_linear" x1="126.159" y1="32.7508" x2="110.436" y2="16.6473" gradientUnits="userSpaceOnUse">
<stop stop-color="#00A0FF"/>
<stop offset="0.0066" stop-color="#00A1FF"/>
<stop offset="0.2601" stop-color="#00BEFF"/>
<stop offset="0.5122" stop-color="#00D2FF"/>
<stop offset="0.7604" stop-color="#00DFFF"/>
<stop offset="1" stop-color="#00E3FF"/>
</linearGradient>
<linearGradient id="paint1_linear" x1="137.71" y1="22.1699" x2="114.485" y2="22.1699" gradientUnits="userSpaceOnUse">
<stop stop-color="#FFE000"/>
<stop offset="0.4087" stop-color="#FFBD00"/>
<stop offset="0.7754" stop-color="#FFA500"/>
<stop offset="1" stop-color="#FF9C00"/>
</linearGradient>
<linearGradient id="paint2_linear" x1="129.065" y1="20.0192" x2="107.744" y2="-1.81839" gradientUnits="userSpaceOnUse">
<stop stop-color="#FF3A44"/>
<stop offset="1" stop-color="#C31162"/>
</linearGradient>
<linearGradient id="paint3_linear" x1="112.239" y1="40.7471" x2="121.76" y2="30.9957" gradientUnits="userSpaceOnUse">
<stop stop-color="#32A071"/>
<stop offset="0.0685" stop-color="#2DA771"/>
<stop offset="0.4762" stop-color="#15CF74"/>
<stop offset="0.8009" stop-color="#06E775"/>
<stop offset="1" stop-color="#00F076"/>
</linearGradient>
</defs>
</svg>
