<svg width="298" height="104" viewBox="0 0 298 104" fill="none" xmlns="http://www.w3.org/2000/svg">
    <rect x="252" y="21" width="44" height="44" rx="13" fill="black" fill-opacity="0.35"/>
    <path d="M269.759 51.2226L269.523 51.1009L269.263 51.1542L264.942 52.041L265.777 47.5824L265.823 47.3355L265.711 47.1107C265.096 45.8732 264.75 44.4781 264.75 43C264.75 37.8914 268.891 33.75 274 33.75C279.109 33.75 283.25 37.8914 283.25 43C283.25 48.1086 279.109 52.25 274 52.25C272.47 52.25 271.028 51.879 269.759 51.2226Z" stroke="white" stroke-width="1.5"/>
    <path d="M271 43C271 43.5523 270.552 44 270 44C269.448 44 269 43.5523 269 43C269 42.4477 269.448 42 270 42C270.552 42 271 42.4477 271 43Z" fill="white"/>
    <path d="M275 43C275 43.5523 274.552 44 274 44C273.448 44 273 43.5523 273 43C273 42.4477 273.448 42 274 42C274.552 42 275 42.4477 275 43Z" fill="white"/>
    <path d="M279 43C279 43.5523 278.552 44 278 44C277.448 44 277 43.5523 277 43C277 42.4477 277.448 42 278 42C278.552 42 279 42.4477 279 43Z" fill="white"/>
    <rect x="178" y="21" width="44" height="44" rx="13" fill="black" fill-opacity="0.25"/>
    <path d="M195.759 51.2226L195.523 51.1009L195.263 51.1542L190.942 52.041L191.777 47.5824L191.823 47.3355L191.711 47.1107C191.096 45.8732 190.75 44.4781 190.75 43C190.75 37.8914 194.891 33.75 200 33.75C205.109 33.75 209.25 37.8914 209.25 43C209.25 48.1086 205.109 52.25 200 52.25C198.47 52.25 197.028 51.879 195.759 51.2226Z" stroke="white" stroke-width="1.5"/>
    <path d="M197 43C197 43.5523 196.552 44 196 44C195.448 44 195 43.5523 195 43C195 42.4477 195.448 42 196 42C196.552 42 197 42.4477 197 43Z" fill="white"/>
    <path d="M201 43C201 43.5523 200.552 44 200 44C199.448 44 199 43.5523 199 43C199 42.4477 199.448 42 200 42C200.552 42 201 42.4477 201 43Z" fill="white"/>
    <path d="M205 43C205 43.5523 204.552 44 204 44C203.448 44 203 43.5523 203 43C203 42.4477 203.448 42 204 42C204.552 42 205 42.4477 205 43Z" fill="white"/>
    <rect x="104" y="21" width="44" height="44" rx="13" fill="black" fill-opacity="0.1"/>
    <path d="M121.759 51.2226L121.523 51.1009L121.263 51.1542L116.942 52.041L117.777 47.5824L117.823 47.3355L117.711 47.1107C117.096 45.8732 116.75 44.4781 116.75 43C116.75 37.8914 120.891 33.75 126 33.75C131.109 33.75 135.25 37.8914 135.25 43C135.25 48.1086 131.109 52.25 126 52.25C124.47 52.25 123.028 51.879 121.759 51.2226Z" stroke="white" stroke-width="1.5"/>
    <path d="M123 43C123 43.5523 122.552 44 122 44C121.448 44 121 43.5523 121 43C121 42.4477 121.448 42 122 42C122.552 42 123 42.4477 123 43Z" fill="white"/>
    <path d="M127 43C127 43.5523 126.552 44 126 44C125.448 44 125 43.5523 125 43C125 42.4477 125.448 42 126 42C126.552 42 127 42.4477 127 43Z" fill="white"/>
    <path d="M131 43C131 43.5523 130.552 44 130 44C129.448 44 129 43.5523 129 43C129 42.4477 129.448 42 130 42C130.552 42 131 42.4477 131 43Z" fill="white"/>
    <g filter="url(#filter0_d)">
        <rect x="30" y="20" width="44" height="44" rx="13" fill="white"/>
    </g>
    <path d="M47.7586 50.2226L47.5231 50.1009L47.2634 50.1542L42.9425 51.041L43.7767 46.5824L43.8229 46.3355L43.7111 46.1107C43.0961 44.8732 42.75 43.4781 42.75 42C42.75 36.8914 46.8914 32.75 52 32.75C57.1086 32.75 61.25 36.8914 61.25 42C61.25 47.1086 57.1086 51.25 52 51.25C50.4697 51.25 49.0283 50.879 47.7586 50.2226Z" stroke="#131313" stroke-width="1.5"/>
    <path d="M49 42C49 42.5523 48.5523 43 48 43C47.4477 43 47 42.5523 47 42C47 41.4477 47.4477 41 48 41C48.5523 41 49 41.4477 49 42Z" fill="#131313"/>
    <path d="M53 42C53 42.5523 52.5523 43 52 43C51.4477 43 51 42.5523 51 42C51 41.4477 51.4477 41 52 41C52.5523 41 53 41.4477 53 42Z" fill="#131313"/>
    <path d="M57 42C57 42.5523 56.5523 43 56 43C55.4477 43 55 42.5523 55 42C55 41.4477 55.4477 41 56 41C56.5523 41 57 41.4477 57 42Z" fill="#131313"/>
    <path d="M40.0651 82L38.3971 74.128H39.4291L40.2571 78.412C40.3291 78.844 40.4051 79.268 40.4851 79.684C40.5651 80.1 40.6411 80.524 40.7131 80.956H40.7611C40.8491 80.524 40.9411 80.1 41.0371 79.684C41.1331 79.26 41.2251 78.836 41.3131 78.412L42.4051 74.128H43.3171L44.4091 78.412C44.5051 78.828 44.6011 79.248 44.6971 79.672C44.7931 80.096 44.8891 80.524 44.9851 80.956H45.0331C45.1051 80.524 45.1771 80.1 45.2491 79.684C45.3211 79.26 45.3971 78.836 45.4771 78.412L46.3051 74.128H47.2651L45.6331 82H44.4331L43.2451 77.26C43.1731 76.956 43.1051 76.66 43.0411 76.372C42.9851 76.076 42.9251 75.776 42.8611 75.472H42.8131C42.7491 75.776 42.6811 76.076 42.6091 76.372C42.5451 76.66 42.4811 76.956 42.4171 77.26L41.2531 82H40.0651ZM48.5387 82V73.456H49.5227V75.784L49.4867 76.984C49.7667 76.72 50.0587 76.496 50.3627 76.312C50.6667 76.12 51.0227 76.024 51.4307 76.024C52.0467 76.024 52.4947 76.216 52.7747 76.6C53.0627 76.984 53.2067 77.552 53.2067 78.304V82H52.2227V78.436C52.2227 77.884 52.1347 77.488 51.9587 77.248C51.7827 77 51.5027 76.876 51.1187 76.876C50.8147 76.876 50.5467 76.952 50.3147 77.104C50.0827 77.256 49.8187 77.48 49.5227 77.776V82H48.5387ZM55.066 82V76.168H56.05V82H55.066ZM55.57 74.968C55.378 74.968 55.214 74.908 55.078 74.788C54.95 74.668 54.886 74.516 54.886 74.332C54.886 74.14 54.95 73.988 55.078 73.876C55.214 73.756 55.378 73.696 55.57 73.696C55.762 73.696 55.922 73.756 56.05 73.876C56.186 73.988 56.254 74.14 56.254 74.332C56.254 74.516 56.186 74.668 56.05 74.788C55.922 74.908 55.762 74.968 55.57 74.968ZM59.8552 82.144C59.5432 82.144 59.2792 82.096 59.0632 82C58.8552 81.904 58.6832 81.772 58.5472 81.604C58.4192 81.436 58.3272 81.232 58.2712 80.992C58.2152 80.752 58.1872 80.488 58.1872 80.2V76.972H57.3232V76.228L58.2352 76.168L58.3552 74.536H59.1832V76.168H60.7552V76.972H59.1832V80.212C59.1832 80.572 59.2472 80.852 59.3752 81.052C59.5112 81.244 59.7472 81.34 60.0832 81.34C60.1872 81.34 60.2992 81.324 60.4192 81.292C60.5392 81.26 60.6472 81.224 60.7432 81.184L60.9352 81.928C60.7752 81.984 60.5992 82.032 60.4072 82.072C60.2232 82.12 60.0392 82.144 59.8552 82.144ZM64.2738 82.144C63.8818 82.144 63.5138 82.076 63.1698 81.94C62.8338 81.796 62.5378 81.596 62.2818 81.34C62.0338 81.076 61.8378 80.756 61.6938 80.38C61.5498 80.004 61.4778 79.576 61.4778 79.096C61.4778 78.616 61.5498 78.188 61.6938 77.812C61.8458 77.428 62.0418 77.104 62.2818 76.84C62.5298 76.576 62.8098 76.376 63.1218 76.24C63.4338 76.096 63.7578 76.024 64.0938 76.024C64.4618 76.024 64.7898 76.088 65.0778 76.216C65.3738 76.344 65.6178 76.528 65.8098 76.768C66.0098 77.008 66.1618 77.296 66.2658 77.632C66.3698 77.968 66.4218 78.344 66.4218 78.76C66.4218 78.864 66.4178 78.968 66.4098 79.072C66.4098 79.168 66.4018 79.252 66.3858 79.324H62.4498C62.4898 79.948 62.6818 80.444 63.0258 80.812C63.3778 81.172 63.8338 81.352 64.3938 81.352C64.6738 81.352 64.9298 81.312 65.1618 81.232C65.4018 81.144 65.6298 81.032 65.8458 80.896L66.1938 81.544C65.9378 81.704 65.6538 81.844 65.3418 81.964C65.0298 82.084 64.6738 82.144 64.2738 82.144ZM62.4378 78.616H65.5578C65.5578 78.024 65.4298 77.576 65.1738 77.272C64.9258 76.96 64.5738 76.804 64.1178 76.804C63.9098 76.804 63.7098 76.844 63.5178 76.924C63.3338 77.004 63.1658 77.124 63.0138 77.284C62.8618 77.436 62.7338 77.624 62.6298 77.848C62.5338 78.072 62.4698 78.328 62.4378 78.616Z" fill="#292929"/>
    <path d="M101.209 83V75.128H102.205V82.148H105.649V83H101.209ZM106.949 83V77.168H107.933V83H106.949ZM107.453 75.968C107.261 75.968 107.097 75.908 106.961 75.788C106.833 75.668 106.769 75.516 106.769 75.332C106.769 75.14 106.833 74.988 106.961 74.876C107.097 74.756 107.261 74.696 107.453 74.696C107.645 74.696 107.805 74.756 107.933 74.876C108.069 74.988 108.137 75.14 108.137 75.332C108.137 75.516 108.069 75.668 107.933 75.788C107.805 75.908 107.645 75.968 107.453 75.968ZM111.87 85.688C111.51 85.688 111.182 85.652 110.886 85.58C110.59 85.516 110.334 85.416 110.118 85.28C109.91 85.144 109.746 84.98 109.626 84.788C109.514 84.596 109.458 84.372 109.458 84.116C109.458 83.868 109.534 83.632 109.686 83.408C109.838 83.184 110.046 82.98 110.31 82.796V82.748C110.166 82.66 110.042 82.54 109.938 82.388C109.842 82.228 109.794 82.032 109.794 81.8C109.794 81.552 109.862 81.336 109.998 81.152C110.134 80.968 110.278 80.824 110.43 80.72V80.672C110.238 80.512 110.062 80.3 109.902 80.036C109.75 79.764 109.674 79.452 109.674 79.1C109.674 78.78 109.73 78.492 109.842 78.236C109.962 77.98 110.122 77.764 110.322 77.588C110.522 77.404 110.754 77.264 111.018 77.168C111.29 77.072 111.574 77.024 111.87 77.024C112.03 77.024 112.178 77.04 112.314 77.072C112.458 77.096 112.586 77.128 112.698 77.168H114.726V77.924H113.526C113.662 78.06 113.774 78.232 113.862 78.44C113.958 78.648 114.006 78.876 114.006 79.124C114.006 79.436 113.95 79.72 113.838 79.976C113.726 80.224 113.574 80.436 113.382 80.612C113.19 80.78 112.962 80.912 112.698 81.008C112.442 81.104 112.166 81.152 111.87 81.152C111.726 81.152 111.578 81.136 111.426 81.104C111.274 81.064 111.13 81.012 110.994 80.948C110.89 81.036 110.802 81.136 110.73 81.248C110.658 81.352 110.622 81.484 110.622 81.644C110.622 81.828 110.694 81.98 110.838 82.1C110.982 82.22 111.254 82.28 111.654 82.28H112.782C113.462 82.28 113.97 82.392 114.306 82.616C114.65 82.832 114.822 83.184 114.822 83.672C114.822 83.944 114.754 84.2 114.618 84.44C114.482 84.688 114.286 84.904 114.03 85.088C113.774 85.272 113.462 85.416 113.094 85.52C112.734 85.632 112.326 85.688 111.87 85.688ZM111.87 80.492C112.038 80.492 112.194 80.46 112.338 80.396C112.49 80.332 112.622 80.24 112.734 80.12C112.854 80 112.946 79.856 113.01 79.688C113.074 79.512 113.106 79.316 113.106 79.1C113.106 78.668 112.986 78.336 112.746 78.104C112.506 77.864 112.214 77.744 111.87 77.744C111.526 77.744 111.234 77.864 110.994 78.104C110.754 78.336 110.634 78.668 110.634 79.1C110.634 79.316 110.666 79.512 110.73 79.688C110.794 79.856 110.882 80 110.994 80.12C111.114 80.24 111.246 80.332 111.39 80.396C111.542 80.46 111.702 80.492 111.87 80.492ZM112.014 85.004C112.294 85.004 112.546 84.968 112.77 84.896C113.002 84.832 113.198 84.744 113.358 84.632C113.518 84.528 113.642 84.404 113.73 84.26C113.818 84.116 113.862 83.968 113.862 83.816C113.862 83.544 113.762 83.356 113.562 83.252C113.362 83.148 113.07 83.096 112.686 83.096H111.678C111.566 83.096 111.442 83.088 111.306 83.072C111.178 83.064 111.05 83.04 110.922 83C110.714 83.152 110.562 83.312 110.466 83.48C110.37 83.648 110.322 83.816 110.322 83.984C110.322 84.296 110.47 84.544 110.766 84.728C111.07 84.912 111.486 85.004 112.014 85.004ZM115.949 83V74.456H116.933V76.784L116.897 77.984C117.177 77.72 117.469 77.496 117.773 77.312C118.077 77.12 118.433 77.024 118.841 77.024C119.457 77.024 119.905 77.216 120.185 77.6C120.473 77.984 120.617 78.552 120.617 79.304V83H119.633V79.436C119.633 78.884 119.545 78.488 119.369 78.248C119.193 78 118.913 77.876 118.529 77.876C118.225 77.876 117.957 77.952 117.725 78.104C117.493 78.256 117.229 78.48 116.933 78.776V83H115.949ZM124.312 83.144C124 83.144 123.736 83.096 123.52 83C123.312 82.904 123.14 82.772 123.004 82.604C122.876 82.436 122.784 82.232 122.728 81.992C122.672 81.752 122.644 81.488 122.644 81.2V77.972H121.78V77.228L122.692 77.168L122.812 75.536H123.64V77.168H125.212V77.972H123.64V81.212C123.64 81.572 123.704 81.852 123.832 82.052C123.968 82.244 124.204 82.34 124.54 82.34C124.644 82.34 124.756 82.324 124.876 82.292C124.996 82.26 125.104 82.224 125.2 82.184L125.392 82.928C125.232 82.984 125.056 83.032 124.864 83.072C124.68 83.12 124.496 83.144 124.312 83.144ZM132.125 83.144C131.605 83.144 131.125 83.052 130.685 82.868C130.253 82.684 129.881 82.42 129.569 82.076C129.257 81.724 129.013 81.296 128.837 80.792C128.661 80.28 128.573 79.704 128.573 79.064C128.573 78.432 128.661 77.864 128.837 77.36C129.021 76.856 129.273 76.428 129.593 76.076C129.913 75.724 130.293 75.456 130.733 75.272C131.181 75.08 131.665 74.984 132.185 74.984C132.457 74.984 132.705 75.012 132.929 75.068C133.161 75.124 133.369 75.2 133.553 75.296C133.745 75.384 133.913 75.488 134.057 75.608C134.209 75.72 134.341 75.836 134.453 75.956L133.901 76.604C133.701 76.396 133.469 76.22 133.205 76.076C132.941 75.932 132.609 75.86 132.209 75.86C131.809 75.86 131.449 75.936 131.129 76.088C130.809 76.232 130.537 76.444 130.313 76.724C130.089 76.996 129.913 77.328 129.785 77.72C129.665 78.112 129.605 78.552 129.605 79.04C129.605 79.536 129.661 79.984 129.773 80.384C129.893 80.776 130.061 81.112 130.277 81.392C130.501 81.672 130.773 81.888 131.093 82.04C131.421 82.192 131.797 82.268 132.221 82.268C132.501 82.268 132.765 82.228 133.013 82.148C133.269 82.06 133.477 81.944 133.637 81.8V79.748H131.969V78.92H134.549V82.232C134.293 82.496 133.957 82.716 133.541 82.892C133.125 83.06 132.653 83.144 132.125 83.144ZM136.339 83V77.168H137.155L137.239 78.224H137.275C137.475 77.856 137.715 77.564 137.995 77.348C138.283 77.132 138.595 77.024 138.931 77.024C139.163 77.024 139.371 77.064 139.555 77.144L139.363 78.008C139.267 77.976 139.179 77.952 139.099 77.936C139.019 77.92 138.919 77.912 138.799 77.912C138.551 77.912 138.291 78.012 138.019 78.212C137.755 78.412 137.523 78.76 137.323 79.256V83H136.339ZM141.551 83.144C141.063 83.144 140.655 83 140.327 82.712C140.007 82.424 139.847 82.016 139.847 81.488C139.847 80.848 140.131 80.36 140.699 80.024C141.267 79.68 142.175 79.44 143.423 79.304C143.423 79.12 143.403 78.94 143.363 78.764C143.331 78.588 143.271 78.432 143.183 78.296C143.095 78.16 142.971 78.052 142.811 77.972C142.659 77.884 142.463 77.84 142.223 77.84C141.887 77.84 141.571 77.904 141.275 78.032C140.979 78.16 140.715 78.304 140.483 78.464L140.099 77.78C140.371 77.604 140.703 77.436 141.095 77.276C141.487 77.108 141.919 77.024 142.391 77.024C143.103 77.024 143.619 77.244 143.939 77.684C144.259 78.116 144.419 78.696 144.419 79.424V83H143.603L143.519 82.304H143.483C143.203 82.536 142.903 82.736 142.583 82.904C142.263 83.064 141.919 83.144 141.551 83.144ZM141.839 82.352C142.119 82.352 142.383 82.288 142.631 82.16C142.879 82.024 143.143 81.828 143.423 81.572V79.952C142.935 80.016 142.523 80.092 142.187 80.18C141.859 80.268 141.591 80.372 141.383 80.492C141.183 80.612 141.035 80.752 140.939 80.912C140.851 81.064 140.807 81.232 140.807 81.416C140.807 81.752 140.907 81.992 141.107 82.136C141.307 82.28 141.551 82.352 141.839 82.352ZM146.35 85.508C146.214 85.508 146.09 85.496 145.978 85.472C145.866 85.456 145.762 85.428 145.666 85.388L145.858 84.608C145.922 84.624 145.994 84.64 146.074 84.656C146.154 84.68 146.23 84.692 146.302 84.692C146.638 84.692 146.91 84.572 147.118 84.332C147.334 84.1 147.502 83.804 147.622 83.444L147.754 83.012L145.414 77.168H146.434L147.622 80.396C147.71 80.652 147.802 80.924 147.898 81.212C148.002 81.492 148.098 81.768 148.186 82.04H148.234C148.322 81.776 148.406 81.5 148.486 81.212C148.566 80.924 148.646 80.652 148.726 80.396L149.77 77.168H150.73L148.534 83.48C148.43 83.768 148.314 84.036 148.186 84.284C148.058 84.532 147.906 84.744 147.73 84.92C147.554 85.104 147.354 85.248 147.13 85.352C146.906 85.456 146.646 85.508 146.35 85.508Z" fill="#292929"/>
    <path d="M193.215 83.144C192.695 83.144 192.215 83.052 191.775 82.868C191.343 82.684 190.971 82.42 190.659 82.076C190.347 81.724 190.103 81.296 189.927 80.792C189.751 80.28 189.663 79.704 189.663 79.064C189.663 78.432 189.751 77.864 189.927 77.36C190.111 76.856 190.363 76.428 190.683 76.076C191.003 75.724 191.383 75.456 191.823 75.272C192.271 75.08 192.755 74.984 193.275 74.984C193.547 74.984 193.795 75.012 194.019 75.068C194.251 75.124 194.459 75.2 194.643 75.296C194.835 75.384 195.003 75.488 195.147 75.608C195.299 75.72 195.431 75.836 195.543 75.956L194.991 76.604C194.791 76.396 194.559 76.22 194.295 76.076C194.031 75.932 193.699 75.86 193.299 75.86C192.899 75.86 192.539 75.936 192.219 76.088C191.899 76.232 191.627 76.444 191.403 76.724C191.179 76.996 191.003 77.328 190.875 77.72C190.755 78.112 190.695 78.552 190.695 79.04C190.695 79.536 190.751 79.984 190.863 80.384C190.983 80.776 191.151 81.112 191.367 81.392C191.591 81.672 191.863 81.888 192.183 82.04C192.511 82.192 192.887 82.268 193.311 82.268C193.591 82.268 193.855 82.228 194.103 82.148C194.359 82.06 194.567 81.944 194.727 81.8V79.748H193.059V78.92H195.639V82.232C195.383 82.496 195.047 82.716 194.631 82.892C194.215 83.06 193.743 83.144 193.215 83.144ZM197.429 83V77.168H198.245L198.329 78.224H198.365C198.565 77.856 198.805 77.564 199.085 77.348C199.373 77.132 199.685 77.024 200.021 77.024C200.253 77.024 200.461 77.064 200.645 77.144L200.453 78.008C200.357 77.976 200.269 77.952 200.189 77.936C200.109 77.92 200.009 77.912 199.889 77.912C199.641 77.912 199.381 78.012 199.109 78.212C198.845 78.412 198.613 78.76 198.413 79.256V83H197.429ZM202.641 83.144C202.153 83.144 201.745 83 201.417 82.712C201.097 82.424 200.937 82.016 200.937 81.488C200.937 80.848 201.221 80.36 201.789 80.024C202.357 79.68 203.265 79.44 204.513 79.304C204.513 79.12 204.493 78.94 204.453 78.764C204.421 78.588 204.361 78.432 204.273 78.296C204.185 78.16 204.061 78.052 203.901 77.972C203.749 77.884 203.553 77.84 203.312 77.84C202.977 77.84 202.661 77.904 202.365 78.032C202.069 78.16 201.805 78.304 201.573 78.464L201.189 77.78C201.461 77.604 201.793 77.436 202.185 77.276C202.577 77.108 203.009 77.024 203.48 77.024C204.193 77.024 204.709 77.244 205.029 77.684C205.349 78.116 205.509 78.696 205.509 79.424V83H204.693L204.609 82.304H204.573C204.293 82.536 203.993 82.736 203.673 82.904C203.353 83.064 203.009 83.144 202.641 83.144ZM202.929 82.352C203.209 82.352 203.473 82.288 203.721 82.16C203.969 82.024 204.233 81.828 204.513 81.572V79.952C204.025 80.016 203.613 80.092 203.277 80.18C202.949 80.268 202.681 80.372 202.473 80.492C202.273 80.612 202.125 80.752 202.029 80.912C201.941 81.064 201.896 81.232 201.896 81.416C201.896 81.752 201.997 81.992 202.197 82.136C202.397 82.28 202.641 82.352 202.929 82.352ZM207.439 85.508C207.303 85.508 207.179 85.496 207.067 85.472C206.955 85.456 206.851 85.428 206.755 85.388L206.947 84.608C207.011 84.624 207.083 84.64 207.163 84.656C207.243 84.68 207.319 84.692 207.391 84.692C207.727 84.692 207.999 84.572 208.207 84.332C208.423 84.1 208.591 83.804 208.711 83.444L208.843 83.012L206.503 77.168H207.523L208.711 80.396C208.799 80.652 208.891 80.924 208.987 81.212C209.091 81.492 209.187 81.768 209.275 82.04H209.323C209.411 81.776 209.495 81.5 209.575 81.212C209.655 80.924 209.735 80.652 209.815 80.396L210.859 77.168H211.819L209.623 83.48C209.519 83.768 209.403 84.036 209.275 84.284C209.147 84.532 208.995 84.744 208.819 84.92C208.643 85.104 208.443 85.248 208.219 85.352C207.995 85.456 207.735 85.508 207.439 85.508Z" fill="#292929"/>
    <path d="M250.152 83V75.128H252.12C253.336 75.128 254.26 75.464 254.892 76.136C255.524 76.808 255.84 77.772 255.84 79.028C255.84 79.652 255.76 80.212 255.6 80.708C255.44 81.196 255.204 81.612 254.892 81.956C254.58 82.292 254.196 82.552 253.74 82.736C253.284 82.912 252.76 83 252.168 83H250.152ZM251.148 82.184H252.048C252.968 82.184 253.656 81.908 254.112 81.356C254.576 80.804 254.808 80.028 254.808 79.028C254.808 78.028 254.576 77.264 254.112 76.736C253.656 76.208 252.968 75.944 252.048 75.944H251.148V82.184ZM258.783 83.144C258.295 83.144 257.887 83 257.559 82.712C257.239 82.424 257.079 82.016 257.079 81.488C257.079 80.848 257.363 80.36 257.931 80.024C258.499 79.68 259.407 79.44 260.655 79.304C260.655 79.12 260.635 78.94 260.595 78.764C260.563 78.588 260.503 78.432 260.415 78.296C260.327 78.16 260.203 78.052 260.043 77.972C259.891 77.884 259.695 77.84 259.455 77.84C259.119 77.84 258.803 77.904 258.507 78.032C258.211 78.16 257.947 78.304 257.715 78.464L257.331 77.78C257.603 77.604 257.935 77.436 258.327 77.276C258.719 77.108 259.151 77.024 259.623 77.024C260.335 77.024 260.851 77.244 261.171 77.684C261.491 78.116 261.651 78.696 261.651 79.424V83H260.835L260.751 82.304H260.715C260.435 82.536 260.135 82.736 259.815 82.904C259.495 83.064 259.151 83.144 258.783 83.144ZM259.071 82.352C259.351 82.352 259.615 82.288 259.863 82.16C260.111 82.024 260.375 81.828 260.655 81.572V79.952C260.167 80.016 259.755 80.092 259.419 80.18C259.091 80.268 258.823 80.372 258.615 80.492C258.415 80.612 258.267 80.752 258.171 80.912C258.083 81.064 258.039 81.232 258.039 81.416C258.039 81.752 258.139 81.992 258.339 82.136C258.539 82.28 258.783 82.352 259.071 82.352ZM263.486 83V77.168H264.302L264.386 78.224H264.422C264.622 77.856 264.862 77.564 265.142 77.348C265.43 77.132 265.742 77.024 266.078 77.024C266.31 77.024 266.518 77.064 266.702 77.144L266.51 78.008C266.414 77.976 266.326 77.952 266.246 77.936C266.166 77.92 266.066 77.912 265.946 77.912C265.698 77.912 265.438 78.012 265.166 78.212C264.902 78.412 264.67 78.76 264.47 79.256V83H263.486ZM267.646 83V74.456H268.618V80.24H268.654L271.138 77.168H272.23L270.274 79.508L272.494 83H271.414L269.71 80.192L268.618 81.464V83H267.646ZM279.182 83.144C278.662 83.144 278.182 83.052 277.742 82.868C277.31 82.684 276.938 82.42 276.626 82.076C276.314 81.724 276.07 81.296 275.894 80.792C275.718 80.28 275.63 79.704 275.63 79.064C275.63 78.432 275.718 77.864 275.894 77.36C276.078 76.856 276.33 76.428 276.65 76.076C276.97 75.724 277.35 75.456 277.79 75.272C278.238 75.08 278.722 74.984 279.242 74.984C279.514 74.984 279.762 75.012 279.986 75.068C280.218 75.124 280.426 75.2 280.61 75.296C280.802 75.384 280.97 75.488 281.114 75.608C281.266 75.72 281.398 75.836 281.51 75.956L280.958 76.604C280.758 76.396 280.526 76.22 280.262 76.076C279.998 75.932 279.666 75.86 279.266 75.86C278.866 75.86 278.506 75.936 278.186 76.088C277.866 76.232 277.594 76.444 277.37 76.724C277.146 76.996 276.97 77.328 276.842 77.72C276.722 78.112 276.662 78.552 276.662 79.04C276.662 79.536 276.718 79.984 276.83 80.384C276.95 80.776 277.118 81.112 277.334 81.392C277.558 81.672 277.83 81.888 278.15 82.04C278.478 82.192 278.854 82.268 279.278 82.268C279.558 82.268 279.822 82.228 280.07 82.148C280.326 82.06 280.534 81.944 280.694 81.8V79.748H279.026V78.92H281.606V82.232C281.35 82.496 281.014 82.716 280.598 82.892C280.182 83.06 279.71 83.144 279.182 83.144ZM283.396 83V77.168H284.212L284.296 78.224H284.332C284.532 77.856 284.772 77.564 285.052 77.348C285.34 77.132 285.652 77.024 285.988 77.024C286.22 77.024 286.428 77.064 286.612 77.144L286.42 78.008C286.324 77.976 286.236 77.952 286.156 77.936C286.076 77.92 285.976 77.912 285.856 77.912C285.608 77.912 285.348 78.012 285.076 78.212C284.812 78.412 284.58 78.76 284.38 79.256V83H283.396ZM288.607 83.144C288.119 83.144 287.711 83 287.383 82.712C287.063 82.424 286.903 82.016 286.903 81.488C286.903 80.848 287.187 80.36 287.755 80.024C288.323 79.68 289.231 79.44 290.479 79.304C290.479 79.12 290.459 78.94 290.419 78.764C290.387 78.588 290.327 78.432 290.239 78.296C290.151 78.16 290.027 78.052 289.867 77.972C289.715 77.884 289.519 77.84 289.279 77.84C288.943 77.84 288.627 77.904 288.331 78.032C288.035 78.16 287.771 78.304 287.539 78.464L287.155 77.78C287.427 77.604 287.759 77.436 288.151 77.276C288.543 77.108 288.975 77.024 289.447 77.024C290.159 77.024 290.675 77.244 290.995 77.684C291.315 78.116 291.475 78.696 291.475 79.424V83H290.659L290.575 82.304H290.539C290.259 82.536 289.959 82.736 289.639 82.904C289.319 83.064 288.975 83.144 288.607 83.144ZM288.895 82.352C289.175 82.352 289.439 82.288 289.687 82.16C289.935 82.024 290.199 81.828 290.479 81.572V79.952C289.991 80.016 289.579 80.092 289.243 80.18C288.915 80.268 288.647 80.372 288.439 80.492C288.239 80.612 288.091 80.752 287.995 80.912C287.907 81.064 287.863 81.232 287.863 81.416C287.863 81.752 287.963 81.992 288.163 82.136C288.363 82.28 288.607 82.352 288.895 82.352ZM293.406 85.508C293.27 85.508 293.146 85.496 293.034 85.472C292.922 85.456 292.818 85.428 292.722 85.388L292.914 84.608C292.978 84.624 293.05 84.64 293.13 84.656C293.21 84.68 293.286 84.692 293.358 84.692C293.694 84.692 293.966 84.572 294.174 84.332C294.39 84.1 294.558 83.804 294.678 83.444L294.81 83.012L292.47 77.168H293.49L294.678 80.396C294.766 80.652 294.858 80.924 294.954 81.212C295.058 81.492 295.154 81.768 295.242 82.04H295.29C295.378 81.776 295.462 81.5 295.542 81.212C295.622 80.924 295.702 80.652 295.782 80.396L296.826 77.168H297.786L295.59 83.48C295.486 83.768 295.37 84.036 295.242 84.284C295.114 84.532 294.962 84.744 294.786 84.92C294.61 85.104 294.41 85.248 294.186 85.352C293.962 85.456 293.702 85.508 293.406 85.508Z" fill="#292929"/>
    <defs>
        <filter id="filter0_d" x="0" y="0" width="104" height="104" filterUnits="userSpaceOnUse" color-interpolation-filters="sRGB">
            <feFlood flood-opacity="0" result="BackgroundImageFix"/>
            <feColorMatrix in="SourceAlpha" type="matrix" values="0 0 0 0 0 0 0 0 0 0 0 0 0 0 0 0 0 0 127 0"/>
            <feOffset dy="10"/>
            <feGaussianBlur stdDeviation="15"/>
            <feColorMatrix type="matrix" values="0 0 0 0 0 0 0 0 0 0 0 0 0 0 0 0 0 0 0.1 0"/>
            <feBlend mode="normal" in2="BackgroundImageFix" result="effect1_dropShadow"/>
            <feBlend mode="normal" in="SourceGraphic" in2="effect1_dropShadow" result="shape"/>
        </filter>
    </defs>
</svg>
