<svg width="200" height="50" viewBox="0 0 200 50" fill="none" xmlns="http://www.w3.org/2000/svg">
<path d="M15 0.661941H18.4714V22.7263H29.4487V25.3778H15V0.661941Z" fill="black"/>
<path d="M39.5816 25.2832V0.661941H43.053V25.2832H39.5816Z" fill="black"/>
<path d="M62.4744 25.2832L53.2797 0.661941H56.7512L64.257 20.8324L71.5752 0.661941H74.5775L65.7582 25.2832H62.4744Z" fill="black"/>
<path d="M84.5228 25.2832V0.661941H98.1271V3.31346H87.9004V11.1733H96.4383V13.7301H87.9004V22.6316H98.7839V25.2832H84.5228Z" fill="black"/>
<path d="M115.109 3.21876H106.477V0.661941H127.212V3.31346H118.58V25.3778H115.109V3.21876Z" fill="black"/>
<path d="M134.343 25.2832L144.006 0.661941H147.478L157.048 25.2832H153.295L150.668 18.465H140.347L137.627 25.2832H134.343ZM141.286 15.8135H149.636L145.414 5.2074L141.286 15.8135Z" fill="black"/>
<path d="M185.476 24.6203C182.474 25.4725 179.941 25.946 177.783 25.946C173.936 25.946 170.934 24.8097 168.87 22.6316C166.805 20.4536 165.773 17.2339 165.773 13.0672C165.773 8.99526 166.805 5.77557 168.963 3.50284C171.121 1.23011 174.03 0.09375 177.877 0.09375C180.316 0.09375 182.849 0.472538 185.57 1.23011V4.44981C182.192 3.31345 179.659 2.74527 177.877 2.74527C175.25 2.74527 173.185 3.69223 171.778 5.49148C170.371 7.29072 169.62 9.84754 169.62 13.1619C169.62 16.3816 170.371 18.9384 171.966 20.7377C173.561 22.5369 175.719 23.4839 178.533 23.4839C179.659 23.4839 180.973 23.2945 182.286 22.821V14.7718H185.758V24.6203H185.476Z" fill="black"/>
<path d="M35.9225 49.8096V38.8247H37.236V49.8096H35.9225Z" fill="black"/>
<path d="M42.7716 40.908V39.5823H44.0851V40.908H42.7716ZM42.7716 49.8096V42.2338H44.0851V49.8096H42.7716Z" fill="black"/>
<path d="M51.2156 49.8096L48.4009 42.2338H49.7145L51.8724 48.105L54.1241 42.2338H55.3438L52.4353 49.8096H51.2156Z" fill="black"/>
<path d="M65.289 49.5255C64.3508 49.8096 63.6002 49.9043 62.9435 49.9043C61.8176 49.9043 60.9732 49.5255 60.2226 48.7679C59.5658 48.0103 59.1906 47.0633 59.1906 45.927C59.1906 44.7906 59.472 43.8437 60.1288 43.0861C60.7855 42.3285 61.5361 41.9497 62.4743 41.9497C63.4126 41.9497 64.0693 42.2338 64.5385 42.8967C65.0076 43.5596 65.289 44.5065 65.289 45.6429V46.0217H60.5979C60.7855 47.8209 61.6299 48.6732 63.2249 48.6732C63.7879 48.6732 64.4446 48.4838 65.289 48.1997V49.5255ZM60.6917 45.1694H63.9755C63.9755 43.749 63.4126 43.0861 62.3805 43.0861C61.3485 43.0861 60.7855 43.8437 60.6917 45.1694Z" fill="black"/>
<path d="M82.9278 49.5254C82.0834 49.8095 81.3328 49.9042 80.676 49.9042C79.644 49.9042 78.7996 49.5254 78.1428 48.7678C77.486 48.0103 77.1107 47.0633 77.1107 45.9269C77.1107 44.6959 77.486 43.7489 78.1428 43.086C78.7996 42.4231 79.7378 42.0444 80.8637 42.0444C81.4266 42.0444 82.0834 42.139 82.8339 42.3284V43.4648C82.0834 43.2754 81.4266 43.086 80.9575 43.086C80.3007 43.086 79.7378 43.3701 79.2687 43.8436C78.8934 44.4118 78.6119 45.0747 78.6119 45.9269C78.6119 46.7792 78.7996 47.4421 79.2687 48.0103C79.7378 48.5784 80.3007 48.7678 80.9575 48.7678C81.6142 48.7678 82.1772 48.5784 82.8339 48.2944V49.5254H82.9278Z" fill="black"/>
<path d="M90.715 49.9989C89.5892 49.9989 88.7448 49.6202 88.088 48.9573C87.4313 48.2944 87.1498 47.2527 87.1498 46.1164C87.1498 44.98 87.4313 43.9383 88.088 43.2755C88.7448 42.6126 89.5892 42.2338 90.715 42.2338C91.8409 42.2338 92.6853 42.6126 93.3421 43.2755C93.9989 43.9383 94.2803 44.98 94.2803 46.1164C94.2803 47.2527 93.9989 48.2944 93.3421 48.9573C92.6853 49.6202 91.8409 49.9989 90.715 49.9989ZM90.715 48.9573C91.3718 48.9573 91.9348 48.6732 92.31 48.1997C92.6853 47.7262 92.873 46.9686 92.873 46.0217C92.873 45.0747 92.6853 44.4118 92.31 43.8436C91.9348 43.3702 91.3718 43.0861 90.715 43.0861C90.0583 43.0861 89.4954 43.3702 89.1201 43.8436C88.7448 44.3171 88.5571 45.0747 88.5571 46.0217C88.5571 46.9686 88.7448 47.6315 89.1201 48.1997C89.4954 48.6732 90.0583 48.9573 90.715 48.9573Z" fill="black"/>
<path d="M99.1591 49.8095V42.2337H100.473V43.6542C101.129 42.6125 101.974 42.0444 103.006 42.0444C104.038 42.0444 104.695 42.6125 105.07 43.6542C105.727 42.6125 106.571 42.0444 107.603 42.0444C108.26 42.0444 108.729 42.2337 109.104 42.6125C109.48 42.9913 109.667 43.5595 109.667 44.2224V49.7148H108.354V44.5065C108.354 43.6542 107.978 43.1807 107.322 43.1807C106.665 43.1807 105.914 43.6542 105.07 44.6959V49.7148H103.756V44.5065C103.756 43.6542 103.381 43.1807 102.724 43.1807C102.068 43.1807 101.317 43.6542 100.566 44.6959V49.7148H99.1591V49.8095Z" fill="black"/>
<path d="M115.203 49.8095V42.2337H116.516V43.6542C117.173 42.6125 118.018 42.0444 119.05 42.0444C120.082 42.0444 120.738 42.6125 121.114 43.6542C121.77 42.6125 122.615 42.0444 123.647 42.0444C124.304 42.0444 124.773 42.2337 125.148 42.6125C125.523 42.9913 125.711 43.5595 125.711 44.2224V49.7148H124.397V44.5065C124.397 43.6542 124.022 43.1807 123.365 43.1807C122.709 43.1807 121.958 43.6542 121.114 44.6959V49.7148H119.8V44.5065C119.8 43.6542 119.425 43.1807 118.768 43.1807C118.111 43.1807 117.361 43.6542 116.61 44.6959V49.7148H115.203V49.8095Z" fill="black"/>
<path d="M136.594 49.5255C135.656 49.8096 134.906 49.9043 134.249 49.9043C133.123 49.9043 132.279 49.5255 131.528 48.7679C130.871 48.0103 130.496 47.0633 130.496 45.927C130.496 44.7906 130.777 43.8437 131.434 43.0861C132.091 42.3285 132.842 41.9497 133.78 41.9497C134.718 41.9497 135.375 42.2338 135.844 42.8967C136.313 43.5596 136.594 44.5065 136.594 45.6429V46.0217H131.903C132.091 47.8209 132.935 48.6732 134.53 48.6732C135.093 48.6732 135.75 48.4838 136.594 48.1997V49.5255ZM131.997 45.1694H135.281C135.281 43.749 134.718 43.0861 133.686 43.0861C132.654 43.0861 132.091 43.8437 131.997 45.1694Z" fill="black"/>
<path d="M141.755 49.8095V42.2337H143.068V43.6542C143.631 42.6125 144.382 42.0444 145.414 42.0444C145.508 42.0444 145.695 42.0444 145.883 42.0444V43.3701C145.695 43.2754 145.414 43.2754 145.226 43.2754C144.382 43.2754 143.631 43.7489 143.068 44.7906V49.7148H141.755V49.8095Z" fill="black"/>
<path d="M155.547 49.5254C154.702 49.8095 153.952 49.9042 153.295 49.9042C152.263 49.9042 151.418 49.5254 150.762 48.7678C150.105 48.0103 149.73 47.0633 149.73 45.9269C149.73 44.6959 150.105 43.7489 150.762 43.086C151.418 42.4231 152.357 42.0444 153.483 42.0444C154.046 42.0444 154.702 42.139 155.453 42.3284V43.4648C154.702 43.2754 154.046 43.086 153.576 43.086C152.92 43.086 152.357 43.3701 151.888 43.8436C151.512 44.4118 151.231 45.0747 151.231 45.9269C151.231 46.7792 151.418 47.4421 151.888 48.0103C152.357 48.5784 152.92 48.7678 153.576 48.7678C154.233 48.7678 154.796 48.5784 155.453 48.2944V49.5254H155.547Z" fill="black"/>
<path d="M165.867 49.5255C164.929 49.8096 164.178 49.9043 163.522 49.9043C162.396 49.9043 161.551 49.5255 160.801 48.7679C160.144 48.0103 159.769 47.0633 159.769 45.927C159.769 44.7906 160.05 43.8437 160.707 43.0861C161.364 42.3285 162.114 41.9497 163.052 41.9497C163.991 41.9497 164.647 42.2338 165.117 42.8967C165.586 43.5596 165.867 44.5065 165.867 45.6429V46.0217H161.176C161.364 47.8209 162.208 48.6732 163.803 48.6732C164.366 48.6732 165.023 48.4838 165.867 48.1997V49.5255ZM161.176 45.1694H164.46C164.46 43.749 163.897 43.0861 162.865 43.0861C161.927 43.0861 161.364 43.8437 161.176 45.1694Z" fill="black"/>
</svg>
