<svg width="24" height="24" viewBox="0 0 24 24" fill="none" xmlns="http://www.w3.org/2000/svg">
<path d="M13.7725 10.125C13.7725 9.9375 13.585 9.75 13.3975 9.75H11.2725V7.625C11.2725 7.4375 11.085 7.25 10.8975 7.25H10.1475C9.92871 7.25 9.77246 7.4375 9.77246 7.625V9.75H7.64746C7.42871 9.75 7.27246 9.9375 7.27246 10.125V10.875C7.27246 11.0938 7.42871 11.25 7.64746 11.25H9.77246V13.375C9.77246 13.5938 9.92871 13.75 10.1475 13.75H10.8975C11.085 13.75 11.2725 13.5938 11.2725 13.375V11.25H13.3975C13.585 11.25 13.7725 11.0938 13.7725 10.875V10.125ZM19.8975 19.1875C20.0537 19.0625 20.0537 18.8125 19.8975 18.6562L16.1162 14.875C16.0225 14.8125 15.9287 14.75 15.835 14.75H15.4287C16.3975 13.625 17.0225 12.125 17.0225 10.5C17.0225 6.9375 14.085 4 10.5225 4C6.92871 4 4.02246 6.9375 4.02246 10.5C4.02246 14.0938 6.92871 17 10.5225 17C12.1475 17 13.6162 16.4062 14.7725 15.4375V15.8438C14.7725 15.9375 14.8037 16.0312 14.8662 16.125L18.6475 19.9062C18.8037 20.0625 19.0537 20.0625 19.1787 19.9062L19.8975 19.1875ZM15.5225 10.5C15.5225 13.2812 13.2725 15.5 10.5225 15.5C7.74121 15.5 5.52246 13.2812 5.52246 10.5C5.52246 7.75 7.74121 5.5 10.5225 5.5C13.2725 5.5 15.5225 7.75 15.5225 10.5Z" fill="white"/>
</svg>
