<svg width="14" height="14" viewBox="0 0 14 14" fill="none" xmlns="http://www.w3.org/2000/svg">
<path d="M12.7779 2.16276L11.8543 1.23915C11.5626 0.947483 11.1494 0.777344 10.7606 0.777344C10.3717 0.777344 9.95847 0.947483 9.6668 1.23915L7.84389 3.06207L7.0175 3.88845L1.08694 9.81901L0.795276 12.5898C0.746664 12.9301 1.01403 13.2218 1.3543 13.2218C1.37861 13.2218 1.40291 13.2218 1.42722 13.2218L4.19805 12.9301L10.1286 6.99957L10.955 6.17318L12.7779 4.35026C13.3856 3.74262 13.3856 2.7704 12.7779 2.16276ZM3.66333 11.8121L2.03486 11.9822L2.205 10.3537L7.81958 4.71484L8.57305 3.96137L10.0557 5.44401L9.30222 6.19748L3.66333 11.8121ZM11.9515 3.52387L10.8821 4.61762L9.39944 3.13498L10.4932 2.06554C10.5904 1.96832 10.7119 1.94401 10.7606 1.94401C10.8092 1.94401 10.9307 1.96832 11.0279 2.06554L11.9515 2.98915C12.0974 3.13498 12.0974 3.37804 11.9515 3.52387Z" fill="#292929"/>
</svg>
