<svg width="24" height="24" viewBox="0 0 24 24" fill="none" xmlns="http://www.w3.org/2000/svg">
<path d="M20.5312 9.96966L15.0312 4.46966C14.0938 3.50091 12.5 4.18841 12.5 5.53216V8.03216C8.1875 8.15716 3 9.00091 3 14.3447C3 16.6259 4.1875 18.5322 6.03125 19.7509C7.1875 20.5322 8.71875 19.4384 8.28125 18.0634C7.53125 15.6259 7.90625 14.3447 12.5 14.0634V16.5009C12.5 17.8447 14.0938 18.5322 15.0312 17.5634L20.5312 12.0634C21.125 11.5009 21.125 10.5322 20.5312 9.96966ZM14 16.5009V12.5322C8.84375 12.5634 5.3125 13.5634 6.875 18.5009C5.75 17.7509 4.5 16.4384 4.5 14.3447C4.5 9.87591 9.5 9.53216 14 9.53216V5.50091L19.5 11.0009L14 16.5009Z" fill="#323232"/>
</svg>
