<svg width="20" height="20" viewBox="0 0 20 20" fill="none" xmlns="http://www.w3.org/2000/svg">
<path d="M9.14746 13H7.77246V4.5C7.77246 4.25 7.52246 4 7.27246 4H6.77246C6.49121 4 6.27246 4.25 6.27246 4.5V13H4.89746H4.86621C4.67871 13 4.49121 13.1875 4.49121 13.375C4.49121 13.5 4.55371 13.5938 4.61621 13.6562L6.74121 15.9062C6.80371 15.9688 6.89746 16 6.99121 16C7.11621 16 7.20996 15.9688 7.27246 15.9062L9.39746 13.6562C9.45996 13.5938 9.49121 13.5 9.49121 13.4062C9.49121 13.1875 9.33496 13.0312 9.14746 13ZM15.3975 6.375L13.2725 4.125C13.21 4.0625 13.1162 4 13.0225 4C12.8975 4 12.8037 4.0625 12.7412 4.125L10.6162 6.375C10.5537 6.4375 10.5225 6.53125 10.5225 6.625C10.5225 6.84375 10.6787 7 10.8975 7H12.2725V15.5C12.2725 15.7812 12.4912 16 12.7725 16H13.2725C13.5225 16 13.7725 15.7812 13.7725 15.5V7H15.1475C15.335 7 15.4912 6.84375 15.4912 6.625C15.4912 6.53125 15.46 6.4375 15.3975 6.375Z" fill="#DFDFDF"/>
</svg>
