<svg width="24" height="24" viewBox="0 0 24 24" fill="none" xmlns="http://www.w3.org/2000/svg">
<path d="M13.3975 17H14.1475C14.335 17 14.5225 16.8438 14.5225 16.625V9.875C14.5225 9.6875 14.335 9.5 14.1475 9.5H13.3975C13.1787 9.5 13.0225 9.6875 13.0225 9.875V16.625C13.0225 16.8438 13.1787 17 13.3975 17ZM18.5225 6.5H15.9287L14.8662 4.75C14.6162 4.3125 14.1162 4 13.585 4H10.4287C9.89746 4 9.39746 4.3125 9.14746 4.75L8.08496 6.5H5.52246C5.24121 6.5 5.02246 6.75 5.02246 7V7.5C5.02246 7.78125 5.24121 8 5.52246 8H6.02246V18.5C6.02246 19.3438 6.67871 20 7.52246 20H16.5225C17.335 20 18.0225 19.3438 18.0225 18.5V8H18.5225C18.7725 8 19.0225 7.78125 19.0225 7.5V7C19.0225 6.75 18.7725 6.5 18.5225 6.5ZM10.3662 5.59375C10.3975 5.5625 10.46 5.5 10.5225 5.5C10.5225 5.5 10.5225 5.5 10.5537 5.5H13.4912C13.5537 5.5 13.6162 5.5625 13.6475 5.59375L14.1787 6.5H9.83496L10.3662 5.59375ZM16.5225 18.5H7.52246V8H16.5225V18.5ZM9.89746 17H10.6475C10.835 17 11.0225 16.8438 11.0225 16.625V9.875C11.0225 9.6875 10.835 9.5 10.6475 9.5H9.89746C9.67871 9.5 9.52246 9.6875 9.52246 9.875V16.625C9.52246 16.8438 9.67871 17 9.89746 17Z" fill="#fff"/>
</svg>
